<?xml version="1.0" standalone="no"?><!DOCTYPE svg PUBLIC "-//W3C//DTD SVG 1.1//EN" "http://www.w3.org/Graphics/SVG/1.1/DTD/svg11.dtd"><svg t="1605247873588" class="icon" viewBox="0 0 1024 1024" version="1.1" xmlns="http://www.w3.org/2000/svg" p-id="1663" xmlns:xlink="http://www.w3.org/1999/xlink" width="200" height="200"><defs><style type="text/css"></style></defs><path d="M517.998482 720.000891c-53.332844 0-93.830725-18.500946-121.497644-55.500838s-41.499878-87.332744-41.499878-150.999557 14.332958-114.166666 42.999874-151.499557c29.332914-38.666887 69.665796-57.99983 120.998645-57.99983 41.332879-0.666998 74.832781 9.165973 100.499706 29.498914s42.166876 50.499852 49.499855 90.499735h79.999766c-8.666975-63.332814-32.999903-110.499676-72.999786-141.499586s-92.332729-46.499864-156.999541-46.499863c-78.66677 0-140.333589 27.666919-185.000458 82.999756-41.332879 50.666852-61.999818 115.833661-61.999818 195.500428s20.666939 144.499577 61.999818 194.49943c43.332873 52.666846 104.665693 78.999769 183.998461 78.999768 64.666811 0 116.833658-17.16695 156.500542-51.499849S739.997832 651.334092 751.997797 584.001289h-80.999763c-12.666963 90.666734-63.666813 135.999602-152.999552 135.999602zM512.0005 0.002C366.667926 3.33499 245.83528 53.167844 149.502562 149.500562S3.33699 366.665926 0.004 511.9985C3.33699 657.331074 53.169844 778.16372 149.502562 874.496438s217.165364 146.165572 362.497938 149.498562c145.332574-3.33299 266.16522-53.165844 362.497938-149.498562S1020.66401 657.331074 1023.997 511.9985c-3.33299-145.332574-53.165844-266.16522-149.498562-362.497938S657.333074 3.33499 512.0005 0.002z m0 951.997211c-124.666635-3.33299-228.333331-46.332864-311.000089-128.999622s-125.666632-186.333454-128.999622-311.000089c3.33299-124.666635 46.332864-228.333331 128.999622-311.000089s186.333454-125.666632 311.000089-128.999622c124.666635 3.33299 228.333331 46.332864 311.000089 128.999622s125.666632 186.333454 128.999622 311.000089c-3.33299 124.666635-46.332864 228.333331-128.999622 311.000089s-186.333454 125.666632-311.000089 128.999622z" p-id="1664"></path></svg>