<?xml version="1.0" standalone="no"?><!DOCTYPE svg PUBLIC "-//W3C//DTD SVG 1.1//EN" "http://www.w3.org/Graphics/SVG/1.1/DTD/svg11.dtd"><svg t="1605247845987" class="icon" viewBox="0 0 1024 1024" version="1.1" xmlns="http://www.w3.org/2000/svg" p-id="1399" xmlns:xlink="http://www.w3.org/1999/xlink" width="200" height="200"><defs><style type="text/css"></style></defs><path d="M1000.666 0h-94.822c-13.706 0-24.628 11.458-23.972 25.148l7.932 165.518C798.832 83.798 663.344 16 512.002 16 238.68 16 15.798 239.052 16 512.374 16.202 786.136 238.192 1008 512 1008c127.852 0 244.404-48.374 332.356-127.816 10.226-9.236 10.708-25.122 0.964-34.866l-67.942-67.942c-8.932-8.932-23.28-9.434-32.76-1.086C682.616 830.896 601.212 864 512 864c-194.534 0-352-157.432-352-352 0-194.534 157.432-352 352-352 121.784 0 229.012 61.716 292.198 155.6l-203.05-9.73c-13.69-0.656-25.148 10.266-25.148 23.972v94.822c0 13.254 10.746 24 24 24h400.666c13.254 0 24-10.746 24-24V24c0-13.254-10.746-24-24-24z" p-id="1400"></path></svg>